<svg width="126" height="41" viewBox="0 0 126 41" fill="none" xmlns="http://www.w3.org/2000/svg">
<path d="M126 32.9961C124.793 32.9927 123.585 32.9861 122.379 32.9911C122.202 32.9911 122.086 32.9377 121.97 32.8026C118.134 28.3559 114.296 23.9125 110.457 19.4692C109.669 18.5568 108.88 17.6428 108.092 16.7305C108.041 16.6704 107.984 16.6137 107.879 16.502V32.9727H102.67V7.27998C102.755 7.27498 102.843 7.2633 102.932 7.2633C104.224 7.2633 105.515 7.26497 106.807 7.2583C106.977 7.2583 107.086 7.31501 107.193 7.44177C110.94 11.9068 114.691 16.3702 118.441 20.8352C119.331 21.8944 120.222 22.9535 121.112 24.0143C121.154 24.0627 121.182 24.1227 121.217 24.1761C121.242 24.1627 121.265 24.1477 121.29 24.1344V7.29333C121.352 7.27832 121.384 7.26497 121.416 7.26497C122.944 7.26664 124.471 7.26998 126 7.27331V32.9961Z" fill="white"/>
<path d="M86.0469 6.66626C90.4679 6.76634 94.0328 8.33919 96.7582 11.6383C98.7292 14.0252 99.7122 16.8039 99.7623 19.8963C99.8207 23.519 98.6424 26.6947 96.1557 29.3401C93.9126 31.7252 91.1272 33.0812 87.8777 33.4582C84.5549 33.8435 81.4456 33.188 78.6468 31.3382C75.2839 29.1149 73.2861 25.9725 72.7721 21.9762C72.2147 17.6429 73.448 13.8383 76.5089 10.6893C78.6334 8.50265 81.2537 7.24503 84.2695 6.82304C84.912 6.73298 85.5629 6.70796 86.0469 6.66626ZM86.1971 11.6083C83.7821 11.6083 81.5925 12.5757 80.0303 14.3471C78.8204 15.7198 78.1544 17.3343 77.9625 19.1457C77.7639 21.0238 78.0526 22.8235 78.9939 24.473C80.4459 27.015 82.6723 28.4144 85.5813 28.6095C88.7139 28.818 91.2724 27.6605 93.0665 25.0418C94.3816 23.122 94.7221 20.9604 94.3883 18.6803C93.7841 14.5572 90.3661 11.6067 86.1988 11.6083H86.1971Z" fill="white"/>
<path d="M51.2461 32.971V7.28491H70.706V11.9735H56.4883V17.7795H69.5845V22.433C69.4727 22.433 69.3575 22.433 69.244 22.433C65.0983 22.433 60.9527 22.433 56.807 22.433C56.5789 22.433 56.4649 22.547 56.4649 22.775C56.4649 24.4879 56.4649 26.2009 56.4649 27.9138C56.4649 28.144 56.5773 28.2591 56.802 28.2591C61.3449 28.2591 65.8878 28.2591 70.4306 28.2591C70.5391 28.2591 70.6459 28.2591 70.7728 28.2591V32.971H51.2478H51.2461Z" fill="white"/>
<g clip-path="url(#clip0_718_1209)">
<path d="M21.0064 38.8281C20.8521 38.9025 20.6977 38.9719 20.5417 39.0379C13.5306 42.0108 5.21866 38.8788 1.64357 31.7552C-1.74835 25.0021 0.288498 16.9952 6.12261 12.9258C5.78512 15.2795 5.87331 17.8463 6.41093 20.4724C6.86205 22.6823 7.63372 24.9344 8.73779 27.1341C11.6548 32.9447 16.2543 37.1089 21.0064 38.8281Z" fill="white"/>
<path d="M41.2851 29.8381C38.6682 37.6893 30.38 42.0092 22.7702 39.4863C22.3462 39.3458 21.9324 39.1868 21.5322 39.0091C21.5305 39.0091 21.5271 39.0091 21.5254 39.0091C21.4287 38.9668 21.3337 38.9245 21.2388 38.8788C26.9118 37.405 32.3422 31.8889 34.8896 24.2441C35.6121 22.0748 36.0462 19.9039 36.2141 17.8024C36.3447 16.1644 36.3125 14.5688 36.1293 13.0493C41.1392 16.711 43.4118 23.459 41.2851 29.8398V29.8381Z" fill="white"/>
<path d="M21.2369 38.8772C21.2199 38.884 21.2013 38.8874 21.1826 38.8907L21.2369 38.8772Z" fill="white"/>
<path d="M36.1156 12.9833C32.2929 10.2404 26.9354 8.53651 21.0063 8.53651C15.0772 8.53651 9.71967 10.2404 5.89697 12.9833C6.73478 5.68029 13.1794 0 21.0063 0C28.8332 0 35.2778 5.68029 36.1156 12.9833Z" fill="white"/>
</g>
<defs>
<clipPath id="clip0_718_1209">
<rect width="42.0802" height="40.2054" fill="white"/>
</clipPath>
</defs>
</svg>
