<svg width="1356" height="386" viewBox="0 0 1356 386" fill="none" xmlns="http://www.w3.org/2000/svg">
<path d="M1265.69 316.786C1254.1 316.754 1242.5 316.69 1230.92 316.738C1229.22 316.738 1228.12 316.225 1226.99 314.928C1190.17 272.237 1153.32 229.577 1116.47 186.918C1108.9 178.159 1101.32 169.383 1093.76 160.624C1093.26 160.048 1092.72 159.503 1091.71 158.43V316.562H1041.7V69.893C1042.52 69.8449 1043.37 69.7329 1044.22 69.7329C1056.62 69.7329 1069.02 69.7489 1081.42 69.6848C1083.06 69.6848 1084.1 70.2293 1085.13 71.4463C1121.1 114.314 1157.12 157.165 1193.12 200.033C1201.66 210.201 1210.22 220.37 1218.76 230.554C1219.16 231.019 1219.43 231.595 1219.77 232.107C1220.01 231.979 1220.23 231.835 1220.47 231.707V70.0211C1221.06 69.877 1221.37 69.7489 1221.67 69.7489C1236.35 69.7649 1251.01 69.7969 1265.69 69.8289V316.786Z" fill="#0A2440"/>
<path d="M882.113 64C924.558 64.9608 958.783 80.0613 984.949 111.736C1003.87 134.651 1013.31 161.329 1013.79 191.017C1014.35 225.798 1003.04 256.287 979.164 281.684C957.629 304.583 930.887 317.602 899.69 321.221C867.788 324.92 837.937 318.627 811.066 300.868C778.78 279.523 759.6 249.354 754.665 210.986C749.313 169.383 761.154 132.857 790.541 102.624C810.938 81.6306 836.094 69.5566 865.048 65.5052C871.217 64.6405 877.466 64.4003 882.113 64ZM883.555 111.447C860.369 111.447 839.347 120.735 824.349 137.741C812.733 150.92 806.34 166.421 804.497 183.811C802.59 201.842 805.362 219.121 814.399 234.958C828.339 259.362 849.714 272.797 877.642 274.671C907.717 276.672 932.281 265.559 949.506 240.418C962.132 221.987 965.4 201.234 962.196 179.344C956.395 139.759 923.58 111.431 883.571 111.447H883.555Z" fill="#0A2440"/>
<path d="M548 316.545V69.9409H734.829V114.954H598.328V170.696H724.061V215.373C722.988 215.373 721.882 215.373 720.793 215.373C680.991 215.373 641.19 215.373 601.389 215.373C599.199 215.373 598.104 216.468 598.104 218.656C598.104 235.102 598.104 251.547 598.104 267.993C598.104 270.203 599.183 271.308 601.341 271.308C644.956 271.308 688.57 271.308 732.185 271.308C733.227 271.308 734.252 271.308 735.47 271.308V316.545H548.016H548Z" fill="#0A2440"/>
<g clip-path="url(#clip0_718_1188)">
<path d="M257.674 372.777C256.193 373.491 254.711 374.157 253.213 374.791C185.901 403.334 106.101 373.264 71.7777 304.872C39.2128 240.038 58.768 163.166 114.78 124.096C111.539 146.693 112.386 171.337 117.548 196.55C121.879 217.766 129.287 239.388 139.887 260.507C167.893 316.292 212.051 356.272 257.674 372.777Z" fill="#0A2440"/>
<path d="M452.364 286.466C427.24 361.843 347.668 403.317 274.608 379.096C270.538 377.747 266.565 376.22 262.722 374.515C262.706 374.515 262.673 374.515 262.657 374.515C261.729 374.109 260.817 373.702 259.905 373.264C314.37 359.114 366.506 306.155 390.963 232.76C397.899 211.934 402.067 191.091 403.679 170.915C404.933 155.189 404.624 139.87 402.865 125.282C450.963 160.437 472.782 225.222 452.364 286.482V286.466Z" fill="#0A2440"/>
<path d="M259.889 373.248C259.726 373.313 259.547 373.345 259.368 373.378L259.889 373.248Z" fill="#0A2440"/>
<path d="M402.735 124.649C366.034 98.3154 314.598 81.9566 257.675 81.9566C200.751 81.9566 149.315 98.3154 112.614 124.649C120.658 54.5348 182.531 0 257.675 0C332.818 0 394.691 54.5348 402.735 124.649Z" fill="#0A2440"/>
</g>
<defs>
<clipPath id="clip0_718_1188">
<rect width="404" height="386" fill="white" transform="translate(56)"/>
</clipPath>
</defs>
</svg>
