<svg width="173" height="29" viewBox="0 0 173 29" fill="none" xmlns="http://www.w3.org/2000/svg">
<g clip-path="url(#clip0_707_769)">
<path d="M37.5212 22.1116C36.9704 22.1116 36.4618 21.9705 35.9935 21.6885C35.5252 21.4064 35.1542 21.0264 34.8789 20.5467C34.6035 20.0679 34.4658 19.5459 34.4658 18.9818V10.0164C34.4658 9.43878 34.6035 8.91325 34.8789 8.44163C35.1542 7.96911 35.5252 7.5927 35.9935 7.31063C36.4609 7.02855 36.9704 6.88751 37.5212 6.88751H46.2523C46.8162 6.88751 47.3292 7.02855 47.7905 7.31063C48.2509 7.5927 48.6228 7.96911 48.9051 8.44163C49.1875 8.91325 49.3278 9.43878 49.3278 10.0164V11.4546H46.0874V10.1862H37.6659V18.8129H46.0874V16.5293H42.8672V13.2306H49.3278V18.9818C49.3278 19.5459 49.1866 20.067 48.9051 20.5467C48.6228 21.0264 48.2518 21.4064 47.7905 21.6885C47.3292 21.9705 46.8171 22.1116 46.2523 22.1116H37.5212Z" fill="#4B4A4A"/>
<path d="M51.3511 10.0173C51.3511 9.43969 51.4888 8.91417 51.7641 8.44254C52.0395 7.97002 52.4105 7.59362 52.8788 7.31154C53.3462 7.02947 53.8557 6.88843 54.4064 6.88843H63.1376C63.7015 6.88843 64.2145 7.02947 64.6758 7.31154C65.1362 7.59362 65.508 7.97002 65.7904 8.44254C66.0719 8.91417 66.2131 9.43969 66.2131 10.0173V22.1116H62.9727V17.2067H54.5511V22.1116H51.352V10.0173H51.3511ZM62.9718 13.908V10.1871H54.5503V13.908H62.9718Z" fill="#4B4A4A"/>
<path d="M68.3135 22.1116V6.88843H71.6162L76.6526 13.0411L81.6689 6.88843H84.9917V22.1125H81.7715V11.9002L76.6526 18.1589L71.5127 11.9209V22.1125H68.3135V22.1116Z" fill="#4B4A4A"/>
<path d="M87.1646 22.1116V6.88843H100.891V10.1871H90.405V12.8507H98.8476V16.1493H90.405V18.8138H100.891V22.1125H87.1646V22.1116Z" fill="#4B4A4A"/>
<path d="M102.828 6.88843H114.056C114.607 6.88843 115.112 7.02947 115.574 7.31154C116.034 7.59362 116.406 7.97002 116.688 8.44254C116.971 8.91417 117.111 9.43969 117.111 10.0173V12.8722C117.111 13.0555 117.101 13.228 117.08 13.3906C117.06 13.5523 117.021 13.7041 116.966 13.8451C117.173 14.1128 117.345 14.4236 117.483 14.7758C117.62 15.1279 117.689 15.481 117.689 15.8331V18.9836C117.689 19.5477 117.548 20.0688 117.266 20.5485C116.984 21.0282 116.613 21.4082 116.151 21.6903C115.691 21.9723 115.178 22.1134 114.614 22.1134H102.828V6.88843ZM113.871 12.724V10.1871H106.028V12.724H113.871ZM114.449 18.8138V16.0227H106.028V18.8138H114.449Z" fill="#4B4A4A"/>
<path d="M119.447 22.1116V6.88843H122.605V22.1125H119.447V22.1116Z" fill="#4B4A4A"/>
<path d="M129.852 22.1116V10.1871H124.032V6.88843H138.894V10.1871H133.073V22.1125H129.853L129.852 22.1116Z" fill="#4B4A4A"/>
<path d="M146.023 22.1116V10.1871H140.202V6.88843H155.064V10.1871H149.244V22.1125H146.023L146.023 22.1116Z" fill="#4B4A4A"/>
<path d="M162.886 22.1116V16.4233L156.012 6.88751H159.831L164.497 12.892L169.14 6.88751H173.001L166.107 16.4449V22.1116H162.887H162.886Z" fill="#4B4A4A"/>
<path d="M0 24.1957V1.42745C0 0.638715 0.623526 0 1.39351 0H23.6116C24.3815 0 24.7674 0.95403 24.2228 1.5119L22.4522 3.32563C22.29 3.49182 22.0698 3.58525 21.841 3.58525H4.36381C3.88673 3.58525 3.49911 3.98141 3.49911 4.471V15.5735C3.49911 16.3622 4.43046 16.7575 4.97505 16.1996L8.5794 12.5075C9.124 11.9496 8.73814 10.9956 7.96815 10.9956C7.49108 10.9956 7.10346 10.5994 7.10346 10.1098V8.10836C7.10346 7.61966 7.49021 7.2226 7.96815 7.2226H16.6563C17.4272 7.2226 17.813 8.17843 17.2658 8.73629L1.47419 24.8236C0.928712 25.3788 0 24.9835 0 24.1957Z" fill="#4B4A4A"/>
<path d="M3.93069 27.4881C3.38609 28.046 3.77195 29 4.54193 29H26.7819C27.6405 29 28.3368 28.2867 28.3368 27.4073V4.62553C28.3368 3.8368 27.4054 3.44153 26.8608 3.99939L3.93069 27.4881ZM24.7061 13.6412V20.4847C24.7061 21.2672 23.7879 21.6651 23.2398 21.1198L19.8512 17.7475C19.5057 17.4034 19.5013 16.8357 19.8424 16.4862L23.2311 13.0151C23.7757 12.4572 24.707 12.8525 24.707 13.6412H24.7061ZM13.2432 23.5588L16.2898 20.438C16.6476 20.0715 17.2273 20.0715 17.5851 20.438L20.6317 23.5588C21.2088 24.1499 20.8001 25.1605 19.9845 25.1605H13.8922C13.0766 25.1605 12.6679 24.1499 13.245 23.5588H13.2432Z" fill="#4B4A4A"/>
</g>
<defs>
<clipPath id="clip0_707_769">
<rect width="173" height="29" fill="white"/>
</clipPath>
</defs>
</svg>
