<svg width="128" height="34" viewBox="0 0 128 34" fill="none" xmlns="http://www.w3.org/2000/svg">
<g clip-path="url(#clip0_707_750)">
<path d="M19.3216 4.02627C21.4349 6.19485 22.4915 8.93061 22.4915 12.2342C22.4915 15.5378 21.4349 18.2742 19.3216 20.4422C17.2083 22.6108 14.5165 23.6944 11.2454 23.6944C7.9744 23.6944 5.28192 22.6101 3.16928 20.4422C1.056 18.2749 0 15.5385 0 12.2342C0 8.92996 1.056 6.19485 3.16928 4.02627C5.28256 1.85834 7.9744 0.774048 11.2461 0.774048C14.5178 0.774048 17.2083 1.85834 19.3216 4.02627ZM15.9699 17.4228C17.1891 16.1115 17.7984 14.3826 17.7984 12.2349C17.7984 10.0871 17.1885 8.35822 15.9699 7.04693C14.7507 5.73563 13.1757 5.07999 11.2461 5.07999C9.31648 5.07999 7.7408 5.73563 6.52224 7.04693C5.30304 8.35822 4.69376 10.0878 4.69376 12.2349C4.69376 14.382 5.30304 16.1122 6.52224 17.4228C7.74144 18.7341 9.31584 19.3898 11.2461 19.3898C13.1763 19.3898 14.7507 18.7341 15.9699 17.4228Z" fill="#4B4A4A"/>
<path d="M35.9317 7.00009H39.924V23.2306H35.9317V21.2481C34.875 22.8176 33.1886 23.602 30.8725 23.602C28.5563 23.602 26.829 22.7968 25.5086 21.1863C24.1877 19.5758 23.5278 17.5522 23.5278 15.1157C23.5278 12.6791 24.1877 10.6556 25.5086 9.04508C26.829 7.43458 28.6171 6.62933 30.8725 6.62933C33.1278 6.62933 34.875 7.41442 35.9317 8.98329V7.00074V7.00009ZM34.6363 18.4297C35.3576 17.5626 35.7179 16.4582 35.7179 15.1157C35.7179 13.7732 35.357 12.6687 34.6363 11.8017C33.915 10.934 32.9646 10.5008 31.787 10.5008C30.6094 10.5008 29.6584 10.9346 28.9378 11.8017C28.2165 12.6687 27.8562 13.7738 27.8562 15.1157C27.8562 16.4575 28.2165 17.5626 28.9378 18.4297C29.659 19.2967 30.6088 19.7306 31.787 19.7306C32.9653 19.7306 33.915 19.2967 34.6363 18.4297Z" fill="#4B4A4A"/>
<path d="M52.8155 7.00008H58.2408L52.267 13.9071L58.667 23.2306H53.547L49.4024 16.8185L46.9947 19.6063V23.2306H42.667V0H46.9947V14.3722L52.8155 7.00008Z" fill="#4B4A4A"/>
<path d="M64.4877 23.602C60.1396 23.602 57.833 21.7236 57.5693 17.9646H61.9578C61.9981 18.5637 62.2369 19.0639 62.674 19.4672C63.1105 19.8698 63.7556 20.0708 64.6093 20.0708C65.4631 20.0708 66.0423 19.9368 66.4685 19.6681C66.8954 19.4002 67.1085 19.0385 67.1085 18.5839C67.1085 18.0882 66.8039 17.7214 66.1946 17.484C65.5847 17.2472 64.8481 17.056 63.9847 16.9109C63.1207 16.7665 62.2522 16.5701 61.3793 16.3229C60.5057 16.0751 59.7639 15.5899 59.1546 14.8666C58.5447 14.1439 58.2407 13.1839 58.2407 11.9864C58.2407 10.4793 58.8295 9.20966 60.0084 8.17676C61.1866 7.1445 62.7309 6.62805 64.6407 6.62805C66.8141 6.62805 68.4301 7.18548 69.4868 8.30034C70.5428 9.4152 71.1117 10.6855 71.1937 12.11H67.0183C66.9773 11.5526 66.7489 11.0881 66.3329 10.7161C65.9162 10.3447 65.3421 10.1587 64.6106 10.1587C63.9194 10.1587 63.3812 10.3083 62.9953 10.6075C62.6093 10.9067 62.4161 11.2839 62.4161 11.7379C62.4161 12.2336 62.7207 12.5952 63.33 12.8222C63.9399 13.0499 64.6759 13.2307 65.5393 13.364C66.4026 13.4987 67.266 13.6893 68.13 13.9371C68.9933 14.1849 69.73 14.6805 70.3393 15.424C70.9492 16.1675 71.2532 17.1587 71.2532 18.3972C71.2532 19.9049 70.6484 21.1492 69.4401 22.1294C68.2311 23.1103 66.5799 23.6007 64.4877 23.6007" fill="#4B4A4A"/>
<path d="M99.2613 7.00009H103.254V23.2306H99.2613V21.2481C98.2046 22.8176 96.5182 23.602 94.2021 23.602C91.8859 23.602 90.1585 22.7968 88.8382 21.1863C87.5173 19.5758 86.8574 17.5522 86.8574 15.1157C86.8574 12.6791 87.5173 10.6556 88.8382 9.04508C90.1585 7.43458 91.9467 6.62933 94.2021 6.62933C96.4574 6.62933 98.2046 7.41442 99.2613 8.98329V7.00074V7.00009ZM97.9659 18.4297C98.6872 17.5626 99.0475 16.4582 99.0475 15.1157C99.0475 13.7732 98.6865 12.6687 97.9659 11.8017C97.2446 10.934 96.2949 10.5008 95.1166 10.5008C93.9384 10.5008 92.988 10.9346 92.2673 11.8017C91.5461 12.6687 91.1857 13.7738 91.1857 15.1157C91.1857 16.4575 91.5461 17.5626 92.2673 18.4297C92.9886 19.2967 93.9384 19.7306 95.1166 19.7306C96.2949 19.7306 97.2446 19.2967 97.9659 18.4297Z" fill="#4B4A4A"/>
<path d="M110.324 0H105.996V23.2306H110.324V0Z" fill="#4B4A4A"/>
<path d="M127.939 16.3853H116.358C116.501 17.5002 116.907 18.3523 117.578 18.9409C118.248 19.5296 119.132 19.8236 120.229 19.8236C120.92 19.8236 121.544 19.674 122.104 19.3748C122.662 19.0756 123.064 18.6365 123.308 18.0583H127.665C127.198 19.7104 126.278 21.047 124.908 22.0695C123.536 23.0914 121.936 23.6026 120.108 23.6026C117.75 23.6026 115.82 22.8078 114.317 21.2175C112.813 19.6278 112.062 17.5834 112.062 15.0844C112.062 12.5854 112.813 10.6549 114.317 9.04441C115.82 7.43391 117.74 6.62866 120.077 6.62866C122.414 6.62866 124.318 7.42936 125.791 9.02945C127.264 10.6302 128.001 12.6485 128.001 15.0851L127.94 16.386L127.939 16.3853ZM120.046 10.1593C119.071 10.1593 118.268 10.4331 117.638 10.9801C117.008 11.5278 116.602 12.2765 116.419 13.2255H123.673C123.51 12.2966 123.114 11.5532 122.485 10.9957C121.854 10.4383 121.042 10.1593 120.047 10.1593" fill="#4B4A4A"/>
<path d="M79.4372 15.6946C79.571 15.7154 80.41 13.3588 80.1355 10.5632C79.9934 9.11925 79.5889 7.91332 79.1793 6.99945H78.1943C79.1332 8.12667 79.3662 10.3837 79.4731 11.4179C79.7387 13.9963 79.3252 15.677 79.4372 15.6946Z" fill="#4B4A4A"/>
<path d="M87.5863 7.00006H80.7127C81.3374 7.36366 81.9857 7.8697 82.5399 8.57999C82.5418 8.58259 82.5444 8.58519 82.5463 8.58779C82.8407 8.96635 83.0903 9.38003 83.2887 9.78266C83.7636 10.7453 83.9396 11.641 83.6919 11.8179C83.4839 11.9662 83.011 11.5909 82.561 11.2709C82.2218 11.0296 81.898 10.824 81.7105 10.8949C81.6919 10.9021 81.6734 10.9066 81.6574 10.9196C81.5697 10.9905 81.5486 11.1375 81.5626 11.308C81.5818 11.5389 81.6682 11.8146 81.7617 12.0137C81.8346 12.1691 81.9191 12.296 82.0074 12.4039C82.1578 12.5887 82.3166 12.7149 82.4375 12.8235C83.3687 13.6574 83.905 15.0838 83.5959 15.424C83.3662 15.6776 82.6423 15.3531 82.5822 15.3257C81.8346 14.983 81.6394 14.3052 81.3681 14.3683C81.137 14.4223 81.098 14.9589 81.0372 15.3505C80.7754 17.0247 79.6913 18.7028 79.0212 18.6502C78.6186 18.6183 78.355 17.9607 78.2135 17.6075C77.9774 17.0182 77.946 16.5252 77.61 15.0317C77.5434 14.7345 77.4794 14.4672 77.2996 14.4119C77.0481 14.3351 76.8439 14.7605 76.3217 15.0122C75.8462 15.2418 75.1665 15.2991 74.9943 15.0701C74.8132 14.8288 75.0852 14.1231 76.7473 12.2511C76.8945 12.0917 76.9924 11.9708 77.0564 11.8777C77.1646 11.721 77.1735 11.6462 77.1479 11.6098C77.1204 11.5707 77.0532 11.5727 76.9578 11.6C76.8503 11.6299 76.707 11.6917 76.5482 11.76C76.0945 11.9551 75.5082 12.2088 75.2202 11.9649C74.9354 11.7242 75.0788 11.1135 75.0993 11.0328C75.2049 10.6237 75.4711 10.2633 75.8039 9.9199C75.9351 9.78461 76.0766 9.65127 76.2238 9.51988C76.3454 9.41061 76.4702 9.30263 76.5962 9.19336C77.0385 8.81155 77.1038 8.63723 77.1076 8.54356C77.1076 8.54356 77.1076 8.51429 77.1031 8.48242C77.0628 8.20208 76.0958 7.45277 73.6932 7.15161C72.3031 6.97664 70.8234 7.00136 70.769 7.00136L72.3498 11.0244L77.1639 23.2319H81.1863L87.587 7.00136L87.5863 7.00006Z" fill="#4B4A4A"/>
<path d="M74.4318 32.9209L73.0698 28.6052H72.0522L73.8167 33.9252H74.9444L76.7159 28.6052H75.8007L74.4318 32.9209Z" fill="#4B4A4A"/>
<path d="M81.0936 31.5888H82.9387V30.8447H81.0936V29.3864H83.3924V28.6052H80.1201V33.9252H83.5166V33.144H81.0936V31.5888Z" fill="#4B4A4A"/>
<path d="M90.3994 32.452L88.1953 28.6052H87.0317V33.9252H87.9175V29.8476L90.2746 33.9252H91.2852V28.6052H90.3994V32.452Z" fill="#4B4A4A"/>
<path d="M94.7109 29.3864H96.1676V33.9252H97.1487V29.3864H98.606V28.6052H94.7109V29.3864Z" fill="#4B4A4A"/>
<path d="M105.18 31.7599C105.18 32.2906 105.089 32.664 104.906 32.8799C104.723 33.0952 104.436 33.2039 104.046 33.2039C103.655 33.2039 103.383 33.0972 103.215 32.8838C103.047 32.6705 102.962 32.3186 102.962 31.8275V28.6059H101.981V31.9017C101.981 32.5814 102.159 33.1011 102.515 33.4608C102.871 33.8205 103.379 34 104.039 34C104.698 34 105.253 33.8146 105.616 33.4458C105.98 33.0764 106.161 32.5417 106.161 31.8418V28.6052H105.18V31.7605V31.7599Z" fill="#4B4A4A"/>
<path d="M113.665 30.1975V30.1676C113.665 29.642 113.49 29.2498 113.139 28.9922C112.787 28.734 112.311 28.6052 111.711 28.6052H109.954V33.9252H110.928V31.7748H111.55L112.919 33.9252H113.973L112.502 31.6265C113.278 31.4229 113.665 30.9468 113.665 30.1975ZM111.711 31.0678H110.928V29.3714H111.711C112.038 29.3714 112.286 29.4352 112.454 29.5614C112.623 29.6882 112.707 29.8977 112.707 30.1904V30.2203C112.707 30.7862 112.375 31.0685 111.712 31.0685" fill="#4B4A4A"/>
<path d="M118.358 31.5888H120.203V30.8447H118.358V29.3864H120.657V28.6052H117.384V33.9252H120.781V33.144H118.358V31.5888Z" fill="#4B4A4A"/>
<path d="M126.133 30.7627C125.699 30.6984 125.409 30.6092 125.265 30.4948C125.121 30.3803 125.05 30.2092 125.05 29.9809C125.05 29.7676 125.128 29.5978 125.284 29.471C125.44 29.3448 125.662 29.281 125.95 29.281C126.252 29.281 126.485 29.3448 126.646 29.471C126.807 29.5978 126.912 29.7994 126.96 30.0772H127.854C127.805 29.5711 127.617 29.188 127.29 28.9272C126.963 28.667 126.516 28.5369 125.95 28.5369C125.385 28.5369 124.969 28.6807 124.633 28.9688C124.296 29.257 124.128 29.6212 124.128 30.0629C124.128 30.5487 124.273 30.9071 124.563 31.1381C124.853 31.3683 125.323 31.5283 125.973 31.6181C126.397 31.6877 126.685 31.7794 126.837 31.8932C126.988 32.007 127.064 32.1885 127.064 32.4363C127.064 32.6842 126.972 32.8767 126.789 33.0276C126.606 33.1791 126.368 33.2546 126.076 33.2546C125.671 33.2546 125.385 33.1687 125.219 32.9977C125.053 32.8266 124.951 32.5846 124.912 32.2724H123.975C124.014 32.8084 124.202 33.2292 124.542 33.5369C124.881 33.8445 125.392 33.9987 126.076 33.9987C126.647 33.9987 127.111 33.8426 127.467 33.5297C127.823 33.2175 128.001 32.8253 128.001 32.3544C128.001 31.8438 127.852 31.473 127.555 31.2421C127.257 31.0112 126.784 30.8519 126.135 30.7621" fill="#4B4A4A"/>
</g>
<defs>
<clipPath id="clip0_707_750">
<rect width="128" height="34" fill="white"/>
</clipPath>
</defs>
</svg>
