<svg width="141" height="31" viewBox="0 0 141 31" fill="none" xmlns="http://www.w3.org/2000/svg">
<g clip-path="url(#clip0_707_736)">
<path d="M32.54 21.9284L32.5698 17.3961C32.5698 17.1917 32.7716 17.0464 32.9688 17.1077C35.2779 17.8366 38.667 18.2022 40.373 18.2022C41.3544 18.2022 42.0744 18.0864 42.533 17.8547C42.9893 17.6231 43.2186 17.2734 43.2186 16.8102C43.2186 16.5014 43.0948 16.2289 42.8494 15.9973C42.6041 15.7657 42.1134 15.5045 41.3773 15.2184C40.6412 14.9323 39.536 14.5781 38.0616 14.158C36.2524 13.6266 34.8468 12.7592 33.8424 11.5557C32.8381 10.3523 32.3359 8.96484 32.3359 7.3935C32.3359 4.96154 33.1454 3.12225 34.7642 1.87335C36.3831 0.624451 38.5638 0 41.3108 0C42.7394 0 44.145 0.149868 45.53 0.447334C46.8439 0.731175 48.0156 1.13764 49.0475 1.66899C49.1506 1.72121 49.2126 1.82794 49.2126 1.94374L49.1759 6.34442C49.1759 6.55105 48.9695 6.69411 48.7723 6.63053C47.69 6.27857 46.7338 6.0197 45.9083 5.85167C44.9819 5.6632 44.0831 5.5701 43.214 5.5701C41.7419 5.5701 39.2379 5.96748 39.2379 6.7645C39.2379 7.16188 39.4764 7.50022 39.9579 7.77498C40.4372 8.05201 41.4255 8.39943 42.9205 8.81951C45.264 9.43942 47.0388 10.384 48.2449 11.6534C49.451 12.925 50.0518 14.4441 50.0518 16.213C50.0518 18.6677 49.2492 20.5524 47.6418 21.8671C46.0344 23.1819 43.6566 23.8404 40.5105 23.8404C37.3645 23.8404 34.8422 23.2954 32.7097 22.2032C32.6065 22.151 32.5423 22.0442 32.5446 21.9284H32.54Z" fill="#4B4A4A"/>
<path d="M51.0789 0.465506L57.4902 0.433716C57.6759 0.433716 57.8181 0.592667 57.7974 0.774325L56.5409 10.9018C56.4996 11.2356 56.9559 11.3786 57.1164 11.0812C57.8639 9.7051 58.9577 8.0452 60.0652 7.4094C61.0856 6.82582 62.2574 6.46477 63.6653 6.46477C65.8092 6.46477 67.4877 7.2232 68.7053 8.7355C69.9206 10.2501 70.5306 12.3437 70.5306 15.0186V23.0048C70.5306 23.1728 70.393 23.309 70.2233 23.309H63.8052C63.6355 23.309 63.4979 23.1728 63.4979 23.0048V14.3238C63.4979 13.3746 63.2915 12.6434 62.8788 12.1348C62.466 11.6261 61.8905 11.3718 61.1544 11.3718C60.6179 11.3718 60.095 11.5421 59.5814 11.885C59.0678 12.2279 58.6482 12.7206 58.3248 13.361C58.0015 14.0013 57.8387 14.7325 57.8387 15.55V23.0048C57.8387 23.1728 57.7011 23.309 57.5315 23.309H51.0812C50.9115 23.309 50.7739 23.1728 50.7739 23.0048V0.769784C50.7739 0.60175 50.9115 0.465506 51.0789 0.465506Z" fill="#4B4A4A"/>
<path d="M75.0204 22.4303C73.7593 21.6673 72.748 20.6296 71.9913 19.3126C71.2324 17.9978 70.854 16.5332 70.854 14.9187C70.854 13.3042 71.2324 11.885 71.9913 10.5907C72.7503 9.29867 73.7661 8.28592 75.0388 7.55702C76.3114 6.82811 77.662 6.46252 79.0905 6.46252C80.2508 6.46252 81.3285 6.7827 82.3214 7.42304C82.9359 7.82042 84.2705 9.12155 85.3184 10.3591C85.5385 10.6202 85.9604 10.375 85.8412 10.0571L84.7359 7.10287C84.6626 6.90532 84.8093 6.69187 85.0249 6.69187H91.3077C91.4774 6.69187 91.615 6.82811 91.615 6.99615V23.0002C91.615 23.1683 91.4774 23.3045 91.3077 23.3045H84.8896C84.7199 23.3045 84.5823 23.1683 84.5823 23.0002V21.3335C84.5823 21.0338 84.1948 20.918 84.0228 21.1632C82.8923 22.7686 81.2483 23.5702 79.0905 23.5702C77.639 23.5702 76.2839 23.1887 75.0227 22.4258L75.0204 22.4303ZM83.5596 17.3915C84.1948 16.7626 84.5364 16.0155 84.58 15.1526V14.8869C84.5341 14.0036 84.1833 13.252 83.5252 12.6321C82.8671 12.0145 82.1127 11.7034 81.2643 11.7034C80.3265 11.7034 79.5285 12.0304 78.8704 12.6821C78.2123 13.3338 77.8821 14.1126 77.8821 15.0186C77.8821 15.9247 78.2169 16.7308 78.8864 17.3734C79.556 18.0137 80.3471 18.3339 81.2643 18.3339C82.1815 18.3339 82.9222 18.0183 83.5573 17.3893L83.5596 17.3915Z" fill="#4B4A4A"/>
<path d="M92.5046 19.6804L100.06 9.91629C100.234 9.69149 100.03 9.37359 99.7529 9.4349L93.0481 10.8632C92.8578 10.9041 92.6766 10.7587 92.6766 10.5657V7.00295C92.6766 6.83491 92.8142 6.69867 92.9839 6.69867H106.299C106.469 6.69867 106.607 6.83491 106.607 7.00295V10.1911C106.607 10.2478 106.591 10.3046 106.559 10.3523L101.61 18.1273C101.443 18.3884 101.732 18.7017 102.009 18.561L105.923 16.5786C106.127 16.4742 106.371 16.6218 106.371 16.8488V23.0048C106.371 23.1728 106.233 23.3091 106.063 23.3091H92.7477C92.578 23.3091 92.4404 23.1728 92.4404 23.0048V19.8644C92.4404 19.7985 92.4634 19.7327 92.5046 19.6804Z" fill="#4B4A4A"/>
<path d="M107.258 19.685L112.52 11.8078C112.69 11.5535 112.42 11.2379 112.14 11.3627L107.872 13.2361C107.668 13.3247 107.441 13.1771 107.441 12.9591V7.00295C107.441 6.83491 107.579 6.69867 107.749 6.69867H121.064C121.234 6.69867 121.371 6.83491 121.371 7.00295V10.1842C121.371 10.2455 121.353 10.3069 121.316 10.3568L114.165 20.5547C113.999 20.7885 114.222 21.0974 114.499 21.0202L121.115 19.1741C121.31 19.1196 121.504 19.2649 121.504 19.467V23.0048C121.504 23.1728 121.367 23.3091 121.197 23.3091H107.515C107.345 23.3091 107.208 23.1728 107.208 23.0048V19.853C107.208 19.794 107.226 19.7349 107.258 19.685Z" fill="#4B4A4A"/>
<path d="M128.253 30.262L128.723 25.9499C128.741 25.7751 128.909 25.6524 129.083 25.6842C129.64 25.7819 129.723 25.8296 130.353 25.8296C131.669 25.8296 132.609 25.3754 133.366 24.6533C134.27 23.7882 134.614 21.4471 134.721 19.4375C134.737 19.1218 134.318 18.9947 134.15 19.2672C132.914 21.2972 131.016 23.5429 128.847 23.5429C126.677 23.5429 124.99 22.7868 123.774 21.2722C122.557 19.7576 121.949 17.664 121.949 14.9891V7.00295C121.949 6.83491 122.087 6.69867 122.256 6.69867H128.675C128.844 6.69867 128.982 6.83491 128.982 7.00295V16.0155C128.982 16.7671 129.193 17.3915 129.617 17.8888C130.041 18.3861 130.621 18.6359 131.357 18.6359C132.094 18.6359 132.736 18.3157 133.215 17.6754C133.694 17.035 133.935 16.1949 133.935 15.1549V7.00295C133.935 6.83491 134.072 6.69867 134.242 6.69867H140.692C140.862 6.69867 141 6.83491 141 7.00295V19.0991C141 22.9457 140.128 25.875 138.388 27.8846C136.647 29.8964 134.155 31.2929 130.936 30.9478C129.36 30.7775 128.931 30.6844 128.491 30.5936C128.338 30.5618 128.232 30.4187 128.25 30.2643L128.253 30.262Z" fill="#4B4A4A"/>
<path d="M12.4029 24.2242C19.2529 24.2242 24.8059 22.8222 24.8059 21.0928C24.8059 19.3634 19.2529 17.9615 12.4029 17.9615C5.55298 17.9615 0 19.3634 0 21.0928C0 22.8222 5.55298 24.2242 12.4029 24.2242Z" fill="#4B4A4A"/>
<path d="M12.4029 6.26719C19.2529 6.26719 24.8059 4.86524 24.8059 3.13585C24.8059 1.40646 19.2529 0.0045166 12.4029 0.0045166C5.55298 0.0045166 0 1.40646 0 3.13585C0 4.86524 5.55298 6.26719 12.4029 6.26719Z" fill="#4B4A4A"/>
<path d="M13.5167 14.8174C19.9278 12.4285 24.6265 9.17983 24.0115 7.56124C23.3965 5.94264 17.7006 6.56708 11.2895 8.95597C4.8784 11.3449 0.17972 14.5936 0.794734 16.2122C1.40975 17.8308 7.10556 17.2063 13.5167 14.8174Z" fill="#4B4A4A"/>
</g>
<defs>
<clipPath id="clip0_707_736">
<rect width="141" height="31" fill="white"/>
</clipPath>
</defs>
</svg>
