<svg width="43" height="41" viewBox="0 0 43 41" fill="none" xmlns="http://www.w3.org/2000/svg">
<g clip-path="url(#clip0_718_1214)">
<path d="M21.0064 38.8281C20.8521 38.9025 20.6977 38.9719 20.5417 39.0379C13.5306 42.0108 5.21866 38.8788 1.64357 31.7552C-1.74835 25.0021 0.288498 16.9952 6.12261 12.9258C5.78512 15.2795 5.87331 17.8463 6.41093 20.4724C6.86205 22.6823 7.63372 24.9344 8.73779 27.1341C11.6548 32.9447 16.2543 37.1089 21.0064 38.8281Z" fill="#0A2440"/>
<path d="M41.2851 29.8381C38.6682 37.6893 30.38 42.0092 22.7702 39.4863C22.3462 39.3458 21.9324 39.1868 21.5322 39.0091C21.5305 39.0091 21.5271 39.0091 21.5254 39.0091C21.4287 38.9668 21.3337 38.9245 21.2388 38.8788C26.9118 37.405 32.3422 31.8889 34.8896 24.2441C35.6121 22.0748 36.0462 19.9039 36.2141 17.8024C36.3447 16.1644 36.3125 14.5688 36.1293 13.0493C41.1392 16.711 43.4118 23.459 41.2851 29.8398V29.8381Z" fill="#0A2440"/>
<path d="M21.2369 38.8772C21.2199 38.884 21.2013 38.8874 21.1826 38.8907L21.2369 38.8772Z" fill="#0A2440"/>
<path d="M36.1156 12.9833C32.2929 10.2404 26.9354 8.53651 21.0063 8.53651C15.0772 8.53651 9.71967 10.2404 5.89697 12.9833C6.73478 5.68029 13.1794 0 21.0063 0C28.8332 0 35.2778 5.68029 36.1156 12.9833Z" fill="#0A2440"/>
</g>
<defs>
<clipPath id="clip0_718_1214">
<rect width="42.0802" height="40.2054" fill="white"/>
</clipPath>
</defs>
</svg>
